<?xml version="1.0" encoding="utf-8"?>
<!-- Generator: Adobe Illustrator 19.1.0, SVG Export Plug-In . SVG Version: 6.00 Build 0)  -->
<svg version="1.1" id="Layer_1" xmlns="http://www.w3.org/2000/svg" xmlns:xlink="http://www.w3.org/1999/xlink" x="0px" y="0px"
	 viewBox="0 0 104.9 106.7" style="enable-background:new 0 0 104.9 106.7;" xml:space="preserve">
<style type="text/css">
	.st0{clip-path:url(#SVGID_2_);fill:#FFFFFF;}
</style>
<g>
	<defs>
		<rect id="SVGID_1_" y="0" width="104.9" height="106.7"/>
	</defs>
	<clipPath id="SVGID_2_">
		<use xlink:href="#SVGID_1_"  style="overflow:visible;"/>
	</clipPath>
	<path class="st0" d="M33.1,77.3c-10.7,0-19.3-8.7-19.3-19.3h19.3V77.3z"/>
	<path class="st0" d="M52.5,77.3c10.7,0,19.3-8.7,19.3-19.3H52.5V77.3z"/>
	<path class="st0" d="M71.8,0c10.7,0,19.3,8.7,19.3,19.3H71.8V0z"/>
	<path class="st0" d="M71.8,38.7c10.7,0,19.3,8.7,19.3,19.3H71.8V38.7z"/>
	<path class="st0" d="M71.8,38.7c-10.7,0-19.3-8.6-19.3-19.3h19.3V38.7z"/>
	<path class="st0" d="M52.5,0C41.8,0,33.1,8.7,33.1,19.3h19.3V0z"/>
	<path class="st0" d="M33.1,38.7c-10.7,0-19.3-8.6-19.3-19.3h19.3V38.7z"/>
	<path class="st0" d="M33.1,38.7c10.7,0,19.3,8.7,19.3,19.3H33.1V38.7z"/>
	<path class="st0" d="M2.1,99.4c0,0.4,0.2,0.7,0.5,0.9c0.3,0.2,0.9,0.4,1.8,0.6c1.1,0.3,1.8,0.6,2.3,1c0.5,0.4,0.8,1.1,0.8,1.8
		c0,0.9-0.3,1.6-1,2.1c-0.6,0.5-1.5,0.8-2.5,0.8c-1.5,0-2.9-0.5-4-1.6l1-1.2c1,0.8,2,1.3,3.1,1.3c0.5,0,0.9-0.1,1.3-0.3
		c0.3-0.2,0.5-0.5,0.5-0.9c0-0.4-0.1-0.7-0.4-0.9c-0.3-0.2-0.9-0.4-1.8-0.6c-1.1-0.3-1.9-0.6-2.4-1c-0.6-0.5-0.8-1.1-0.8-2
		c0-0.8,0.3-1.5,0.9-2c0.6-0.5,1.4-0.8,2.4-0.8c1.3,0,2.5,0.4,3.5,1.2l-0.9,1.3c-0.9-0.7-1.8-1-2.6-1c-0.5,0-0.9,0.1-1.2,0.3
		C2.2,98.8,2.1,99,2.1,99.4"/>
	<path class="st0" d="M20.1,101.7c0,1.4-0.5,2.6-1.4,3.6c-1,1-2.2,1.5-3.6,1.5c-1.5,0-2.7-0.5-3.6-1.5c-1-1-1.4-2.2-1.4-3.5
		c0-1.4,0.5-2.6,1.4-3.6c1-1,2.2-1.5,3.6-1.5s2.7,0.5,3.6,1.5C19.6,99.1,20.1,100.3,20.1,101.7 M18.3,101.7c0-1-0.3-1.8-0.9-2.5
		c-0.6-0.7-1.4-1-2.4-1c-1,0-1.7,0.3-2.3,1c-0.6,0.7-0.9,1.5-0.9,2.4c0,1,0.3,1.8,0.9,2.5c0.6,0.7,1.4,1,2.4,1c1,0,1.7-0.3,2.3-1
		C18,103.5,18.3,102.6,18.3,101.7"/>
	<path class="st0" d="M31,106.5h-2l-2.4-3.4h-2.1v3.4h-1.7v-9.7h4.3c1.1,0,2,0.3,2.6,0.8c0.6,0.5,1,1.3,1,2.3c0,1.5-0.8,2.5-2.3,2.9
		L31,106.5z M28.9,100c0-1.1-0.7-1.6-2-1.6h-2.5v3.3h2.5c0.6,0,1.1-0.1,1.5-0.4C28.8,100.9,28.9,100.5,28.9,100"/>
	<polygon class="st0" points="40.8,96.8 40.8,98.3 35.3,98.3 35.3,100.9 40.2,100.9 40.2,102.4 35.3,102.4 35.3,105 40.9,105 
		40.9,106.5 33.6,106.5 33.6,96.8 	"/>
	<polygon class="st0" points="50.5,103.5 50.5,96.8 52.2,96.8 52.2,106.5 50.8,106.5 45.4,99.6 45.4,106.5 43.8,106.5 43.8,96.8 
		45.3,96.8 	"/>
	<polygon class="st0" points="64.1,104 66.5,96.8 67.9,96.8 70.3,104 72.6,96.8 74.4,96.8 71,106.6 69.5,106.6 67.2,99.6 
		64.8,106.6 63.3,106.6 59.9,96.8 61.8,96.8 	"/>
	<polygon class="st0" points="84,96.8 84,98.3 78.5,98.3 78.5,100.9 83.4,100.9 83.4,102.4 78.5,102.4 78.5,105 84.1,105 
		84.1,106.5 76.8,106.5 76.8,96.8 	"/>
	<path class="st0" d="M88.9,99.4c0,0.4,0.2,0.7,0.5,0.9c0.3,0.2,0.9,0.4,1.8,0.6c1.1,0.3,1.8,0.6,2.3,1c0.5,0.4,0.8,1.1,0.8,1.8
		c0,0.9-0.3,1.6-1,2.1c-0.6,0.5-1.5,0.8-2.5,0.8c-1.5,0-2.9-0.5-4-1.6l1-1.2c1,0.8,2,1.3,3.1,1.3c0.5,0,0.9-0.1,1.3-0.3
		c0.3-0.2,0.5-0.5,0.5-0.9c0-0.4-0.1-0.7-0.4-0.9c-0.3-0.2-0.9-0.4-1.8-0.6c-1.1-0.3-1.9-0.6-2.4-1c-0.6-0.5-0.8-1.1-0.8-2
		c0-0.8,0.3-1.5,0.9-2c0.6-0.5,1.4-0.8,2.4-0.8c1.3,0,2.5,0.4,3.5,1.2l-0.9,1.3c-0.9-0.7-1.8-1-2.6-1c-0.5,0-0.9,0.1-1.2,0.3
		C89.1,98.8,88.9,99,88.9,99.4"/>
	<polygon class="st0" points="101.8,98.4 101.8,106.5 100.1,106.5 100.1,98.4 97,98.4 97,96.8 104.9,96.8 104.9,98.4 	"/>
</g>
</svg>
