<?xml version="1.0" encoding="utf-8"?>
<!-- Generator: Adobe Illustrator 19.1.0, SVG Export Plug-In . SVG Version: 6.00 Build 0)  -->
<svg version="1.1" id="Layer_1" xmlns="http://www.w3.org/2000/svg" xmlns:xlink="http://www.w3.org/1999/xlink" x="0px" y="0px"
	 viewBox="27 92 104.9 11" style="enable-background:new 27 92 104.9 11;" xml:space="preserve">
<style type="text/css">
	.st0{fill:#FFFFFF;}
</style>
<g>
	<g>
		<path class="st0" d="M29.1,95.7c0,0.4,0.2,0.7,0.5,0.9c0.3,0.2,0.9,0.4,1.8,0.6c1.1,0.3,1.8,0.6,2.3,1s0.8,1.1,0.8,1.8
			c0,0.9-0.3,1.6-1,2.1c-0.6,0.5-1.5,0.8-2.5,0.8c-1.5,0-2.9-0.5-4-1.6l1-1.2c1,0.8,2,1.3,3.1,1.3c0.5,0,0.9-0.1,1.3-0.3
			c0.3-0.2,0.5-0.5,0.5-0.9s-0.1-0.7-0.4-0.9c-0.3-0.2-0.9-0.4-1.8-0.6c-1.1-0.3-1.9-0.6-2.4-1c-0.6-0.5-0.8-1.1-0.8-2
			c0-0.8,0.3-1.5,0.9-2s1.4-0.8,2.4-0.8c1.3,0,2.5,0.4,3.5,1.2l-0.9,1.3c-0.9-0.7-1.8-1-2.6-1c-0.5,0-0.9,0.1-1.2,0.3
			C29.2,95.1,29.1,95.3,29.1,95.7"/>
	</g>
	<g>
		<path class="st0" d="M47.1,98c0,1.4-0.5,2.6-1.4,3.6c-1,1-2.2,1.5-3.6,1.5c-1.5,0-2.7-0.5-3.6-1.5c-1-1-1.4-2.2-1.4-3.5
			c0-1.4,0.5-2.6,1.4-3.6c1-1,2.2-1.5,3.6-1.5c1.4,0,2.7,0.5,3.6,1.5C46.6,95.4,47.1,96.6,47.1,98 M45.3,98c0-1-0.3-1.8-0.9-2.5
			c-0.6-0.7-1.4-1-2.4-1s-1.7,0.3-2.3,1c-0.6,0.7-0.9,1.5-0.9,2.4c0,1,0.3,1.8,0.9,2.5c0.6,0.7,1.4,1,2.4,1s1.7-0.3,2.3-1
			C45,99.8,45.3,98.9,45.3,98"/>
	</g>
	<g>
		<path class="st0" d="M58,102.8h-2l-2.4-3.4h-2.1v3.4h-1.7v-9.7h4.3c1.1,0,2,0.3,2.6,0.8c0.6,0.5,1,1.3,1,2.3
			c0,1.5-0.8,2.5-2.3,2.9L58,102.8z M55.9,96.3c0-1.1-0.7-1.6-2-1.6h-2.5V98h2.5c0.6,0,1.1-0.1,1.5-0.4
			C55.8,97.2,55.9,96.8,55.9,96.3"/>
	</g>
	<g>
		<polygon class="st0" points="67.8,93.1 67.8,94.6 62.3,94.6 62.3,97.2 67.2,97.2 67.2,98.7 62.3,98.7 62.3,101.3 67.9,101.3 
			67.9,102.8 60.6,102.8 60.6,93.1 		"/>
	</g>
	<g>
		<polygon class="st0" points="77.5,99.8 77.5,93.1 79.2,93.1 79.2,102.8 77.8,102.8 72.4,95.9 72.4,102.8 70.8,102.8 70.8,93.1 
			72.3,93.1 		"/>
	</g>
	<g>
		<polygon class="st0" points="91.1,100.3 93.5,93.1 94.9,93.1 97.3,100.3 99.6,93.1 101.4,93.1 98,102.9 96.5,102.9 94.2,95.9 
			91.8,102.9 90.3,102.9 86.9,93.1 88.8,93.1 		"/>
	</g>
	<g>
		<polygon class="st0" points="111,93.1 111,94.6 105.5,94.6 105.5,97.2 110.4,97.2 110.4,98.7 105.5,98.7 105.5,101.3 111.1,101.3 
			111.1,102.8 103.8,102.8 103.8,93.1 		"/>
	</g>
	<g>
		<path class="st0" d="M115.9,95.7c0,0.4,0.2,0.7,0.5,0.9c0.3,0.2,0.9,0.4,1.8,0.6c1.1,0.3,1.8,0.6,2.3,1s0.8,1.1,0.8,1.8
			c0,0.9-0.3,1.6-1,2.1c-0.6,0.5-1.5,0.8-2.5,0.8c-1.5,0-2.9-0.5-4-1.6l1-1.2c1,0.8,2,1.3,3.1,1.3c0.5,0,0.9-0.1,1.3-0.3
			c0.3-0.2,0.5-0.5,0.5-0.9s-0.1-0.7-0.4-0.9c-0.3-0.2-0.9-0.4-1.8-0.6c-1.1-0.3-1.9-0.6-2.4-1c-0.6-0.5-0.8-1.1-0.8-2
			c0-0.8,0.3-1.5,0.9-2s1.4-0.8,2.4-0.8c1.3,0,2.5,0.4,3.5,1.2l-0.9,1.3c-0.9-0.7-1.8-1-2.6-1c-0.5,0-0.9,0.1-1.2,0.3
			C116.1,95.1,115.9,95.3,115.9,95.7"/>
	</g>
	<g>
		<polygon class="st0" points="128.8,94.7 128.8,102.8 127.1,102.8 127.1,94.7 124,94.7 124,93.1 131.9,93.1 131.9,94.7 		"/>
	</g>
</g>
</svg>
