<?xml version="1.0" encoding="utf-8"?>
<!-- Generator: Adobe Illustrator 19.1.0, SVG Export Plug-In . SVG Version: 6.00 Build 0)  -->
<svg version="1.1" id="Layer_1" xmlns="http://www.w3.org/2000/svg" xmlns:xlink="http://www.w3.org/1999/xlink" x="0px" y="0px"
	 viewBox="0 0 1230 768" style="enable-background:new 0 0 1230 768;" xml:space="preserve">
<style type="text/css">
	.st0{fill:none;stroke:#FFFFFF;stroke-width:0.5;stroke-miterlimit:10;}
</style>
<g>
	<path class="st0" d="M-695.3,378.7c54.9,0,99.4,44.4,99.4,99.3h-99.4V378.7z"/>
	<path class="st0" d="M-794.7,378.7c-54.9,0-99.4,44.4-99.4,99.3h99.4V378.7z"/>
	<path class="st0" d="M-297.8,378.7c54.9,0,99.4,44.4,99.4,99.3h-99.4V378.7z"/>
	<path class="st0" d="M-397.2,378.7c-54.9,0-99.4,44.4-99.4,99.3h99.4V378.7z"/>
	<path class="st0" d="M-1490.3,378.7c54.9,0,99.4,44.4,99.4,99.3h-99.4V378.7z"/>
	<path class="st0" d="M-1589.7,378.7c-54.9,0-99.4,44.4-99.4,99.3h99.4V378.7z"/>
	<path class="st0" d="M-1092.8,378.7c54.9,0,99.4,44.4,99.4,99.3h-99.4V378.7z"/>
	<path class="st0" d="M-1192.2,378.7c-54.9,0-99.4,44.4-99.4,99.3h99.4V378.7z"/>
</g>
<g>
	<path class="st0" d="M-695.3,577.4c-54.9,0-99.4-44.4-99.4-99.3h99.4V577.4z"/>
	<path class="st0" d="M-894.1,577.4c-54.9,0-99.4-44.4-99.4-99.3h99.4V577.4z"/>
	<path class="st0" d="M-297.8,577.4c-54.9,0-99.4-44.4-99.4-99.3h99.4V577.4z"/>
	<path class="st0" d="M-496.6,577.4c-54.9,0-99.4-44.4-99.4-99.3h99.4V577.4z"/>
	<path class="st0" d="M-1490.3,577.4c-54.9,0-99.4-44.4-99.4-99.3h99.4V577.4z"/>
	<path class="st0" d="M-1689.1,577.4c-54.9,0-99.4-44.4-99.4-99.3h99.4V577.4z"/>
	<path class="st0" d="M-1092.8,577.4c-54.9,0-99.4-44.4-99.4-99.3h99.4V577.4z"/>
	<path class="st0" d="M-1291.6,577.4c-54.9,0-99.4-44.4-99.4-99.3h99.4V577.4z"/>
</g>
<g>
	<path class="st0" d="M-695.3,577.4c54.9,0,99.4,44.4,99.4,99.3h-99.4V577.4z"/>
	<path class="st0" d="M-894.1,776.1c-54.9,0-99.4-44.4-99.4-99.3h99.4V776.1z"/>
	<path class="st0" d="M-894.1,577.4c54.9,0,99.4,44.4,99.4,99.3h-99.4V577.4z"/>
	<path class="st0" d="M-794.7,776.1c54.9,0,99.4-44.4,99.4-99.3h-99.4V776.1z"/>
	<path class="st0" d="M-297.8,577.4c54.9,0,99.4,44.4,99.4,99.3h-99.4V577.4z"/>
	<path class="st0" d="M-496.6,776.1c-54.9,0-99.4-44.4-99.4-99.3h99.4V776.1z"/>
	<path class="st0" d="M-496.6,577.4c54.9,0,99.4,44.4,99.4,99.3h-99.4V577.4z"/>
	<path class="st0" d="M-397.2,776.1c54.9,0,99.4-44.4,99.4-99.3h-99.4V776.1z"/>
	<path class="st0" d="M-1490.3,577.4c54.9,0,99.4,44.4,99.4,99.3h-99.4V577.4z"/>
	<path class="st0" d="M-1689.1,776.1c-54.9,0-99.4-44.4-99.4-99.3h99.4V776.1z"/>
	<path class="st0" d="M-1689.1,577.4c54.9,0,99.4,44.4,99.4,99.3h-99.4V577.4z"/>
	<path class="st0" d="M-1589.7,776.1c54.9,0,99.4-44.4,99.4-99.3h-99.4V776.1z"/>
	<path class="st0" d="M-1092.8,577.4c54.9,0,99.4,44.4,99.4,99.3h-99.4V577.4z"/>
	<path class="st0" d="M-1291.6,776.1c-54.9,0-99.4-44.4-99.4-99.3h99.4V776.1z"/>
	<path class="st0" d="M-1291.6,577.4c54.9,0,99.4,44.4,99.4,99.3h-99.4V577.4z"/>
	<path class="st0" d="M-1192.2,776.1c54.9,0,99.4-44.4,99.4-99.3h-99.4V776.1z"/>
</g>
<g>
	<path class="st0" d="M-695.3-18.6c54.9,0,99.4,44.4,99.4,99.3h-99.4V-18.6z"/>
	<path class="st0" d="M-794.7-18.6c-54.9,0-99.4,44.4-99.4,99.3h99.4V-18.6z"/>
	<path class="st0" d="M-297.8-18.6c54.9,0,99.4,44.4,99.4,99.3h-99.4V-18.6z"/>
	<path class="st0" d="M-397.2-18.6c-54.9,0-99.4,44.4-99.4,99.3h99.4V-18.6z"/>
	<path class="st0" d="M-1490.3-18.6c54.9,0,99.4,44.4,99.4,99.3h-99.4V-18.6z"/>
	<path class="st0" d="M-1589.7-18.6c-54.9,0-99.4,44.4-99.4,99.3h99.4V-18.6z"/>
	<path class="st0" d="M-1092.8-18.6c54.9,0,99.4,44.4,99.4,99.3h-99.4V-18.6z"/>
	<path class="st0" d="M-1192.2-18.6c-54.9,0-99.4,44.4-99.4,99.3h99.4V-18.6z"/>
</g>
<g>
	<path class="st0" d="M-695.3,180.1c-54.9,0-99.4-44.4-99.4-99.3h99.4V180.1z"/>
	<path class="st0" d="M-894.1,180.1c-54.9,0-99.4-44.4-99.4-99.3h99.4V180.1z"/>
	<path class="st0" d="M-297.8,180.1c-54.9,0-99.4-44.4-99.4-99.3h99.4V180.1z"/>
	<path class="st0" d="M-496.6,180.1c-54.9,0-99.4-44.4-99.4-99.3h99.4V180.1z"/>
	<path class="st0" d="M-1490.3,180.1c-54.9,0-99.4-44.4-99.4-99.3h99.4V180.1z"/>
	<path class="st0" d="M-1689.1,180.1c-54.9,0-99.4-44.4-99.4-99.3h99.4V180.1z"/>
	<path class="st0" d="M-1092.8,180.1c-54.9,0-99.4-44.4-99.4-99.3h99.4V180.1z"/>
	<path class="st0" d="M-1291.6,180.1c-54.9,0-99.4-44.4-99.4-99.3h99.4V180.1z"/>
</g>
<g>
	<path class="st0" d="M-695.3,180.1c54.9,0,99.4,44.4,99.4,99.3h-99.4V180.1z"/>
	<path class="st0" d="M-894.1,180.1c54.9,0,99.4,44.4,99.4,99.3h-99.4V180.1z"/>
	<path class="st0" d="M-297.8,180.1c54.9,0,99.4,44.4,99.4,99.3h-99.4V180.1z"/>
	<path class="st0" d="M-496.6,180.1c54.9,0,99.4,44.4,99.4,99.3h-99.4V180.1z"/>
	<path class="st0" d="M-1490.3,180.1c54.9,0,99.4,44.4,99.4,99.3h-99.4V180.1z"/>
	<path class="st0" d="M-1689.1,180.1c54.9,0,99.4,44.4,99.4,99.3h-99.4V180.1z"/>
	<path class="st0" d="M-1092.8,180.1c54.9,0,99.4,44.4,99.4,99.3h-99.4V180.1z"/>
	<path class="st0" d="M-1291.6,180.1c54.9,0,99.4,44.4,99.4,99.3h-99.4V180.1z"/>
</g>
<g>
	<path class="st0" d="M-894.1,378.7c-54.9,0-99.4-44.4-99.4-99.3h99.4V378.7z"/>
	<path class="st0" d="M-794.7,378.7c54.9,0,99.4-44.4,99.4-99.3h-99.4V378.7z"/>
	<path class="st0" d="M-496.6,378.7c-54.9,0-99.4-44.4-99.4-99.3h99.4V378.7z"/>
	<path class="st0" d="M-397.2,378.7c54.9,0,99.4-44.4,99.4-99.3h-99.4V378.7z"/>
	<path class="st0" d="M-1689.1,378.7c-54.9,0-99.4-44.4-99.4-99.3h99.4V378.7z"/>
	<path class="st0" d="M-1589.7,378.7c54.9,0,99.4-44.4,99.4-99.3h-99.4V378.7z"/>
	<path class="st0" d="M-1291.6,378.7c-54.9,0-99.4-44.4-99.4-99.3h99.4V378.7z"/>
	<path class="st0" d="M-1192.2,378.7c54.9,0,99.4-44.4,99.4-99.3h-99.4V378.7z"/>
</g>
</svg>
