<?xml version="1.0" encoding="utf-8"?>
<!-- Generator: Adobe Illustrator 19.1.0, SVG Export Plug-In . SVG Version: 6.00 Build 0)  -->
<svg version="1.1" id="Layer_1" xmlns="http://www.w3.org/2000/svg" xmlns:xlink="http://www.w3.org/1999/xlink" x="0px" y="0px"
	 viewBox="-11 -279.1 25.3 1316.2" style="enable-background:new -11 -279.1 25.3 1316.2;" xml:space="preserve">
<style type="text/css">
	.st0{fill:#FF1E00;}
</style>
<g>
	<path class="st0" d="M14.3,328.3c-7,0-12.7,5.7-12.7,12.7h12.7"/>
	<path class="st0" d="M1.7,379c-7,0-12.7-5.7-12.7-12.7H1.7V379z"/>
	<path class="st0" d="M1.7,353.6c-7,0-12.7-5.7-12.7-12.7H1.7V353.6z"/>
	<path class="st0" d="M14.4,366.3H1.7v-12.7C8.7,353.6,14.4,359.3,14.4,366.3"/>
	<path class="st0" d="M14.3-279.1c-7,0-12.7,5.7-12.7,12.7h12.7"/>
	<path class="st0" d="M1.7-228.5c-7,0-12.7-5.6-12.7-12.6H1.7V-228.5z"/>
	<path class="st0" d="M1.7-253.8c-7,0-12.7-5.7-12.7-12.6H1.7V-253.8z"/>
	<path class="st0" d="M14.4-241.1H1.7v-12.7C8.7-253.8,14.4-248.1,14.4-241.1"/>
	<path class="st0" d="M14.3-228.5c-7,0-12.7,5.7-12.7,12.7h12.7"/>
	<path class="st0" d="M1.7-177.9c-7,0-12.7-5.7-12.7-12.7H1.7V-177.9z"/>
	<path class="st0" d="M1.7-203.2c-7,0-12.7-5.6-12.7-12.6H1.7V-203.2z"/>
	<path class="st0" d="M14.4-190.5H1.7v-12.7C8.7-203.2,14.4-197.5,14.4-190.5"/>
	<path class="st0" d="M14.3-177.9c-7,0-12.7,5.7-12.7,12.7h12.7"/>
	<path class="st0" d="M1.7-127.2c-7,0-12.7-5.7-12.7-12.7H1.7V-127.2z"/>
	<path class="st0" d="M1.7-152.6c-7,0-12.7-5.7-12.7-12.7H1.7V-152.6z"/>
	<path class="st0" d="M14.4-139.9H1.7v-12.7C8.7-152.6,14.4-146.9,14.4-139.9"/>
	<path class="st0" d="M14.3-127.2c-7,0-12.7,5.7-12.7,12.7h12.7"/>
	<path class="st0" d="M1.7-76.6c-7,0-12.7-5.7-12.7-12.7H1.7V-76.6z"/>
	<path class="st0" d="M1.7-101.9c-7,0-12.7-5.7-12.7-12.7H1.7V-101.9z"/>
	<path class="st0" d="M14.4-89.2H1.7v-12.7C8.7-101.9,14.4-96.2,14.4-89.2"/>
	<path class="st0" d="M14.3-76.6c-7,0-12.7,5.7-12.7,12.7h12.7"/>
	<path class="st0" d="M1.7-26c-7,0-12.7-5.7-12.7-12.7H1.7V-26z"/>
	<path class="st0" d="M1.7-51.3C-5.3-51.3-11-57-11-64H1.7V-51.3z"/>
	<path class="st0" d="M14.4-38.6H1.7v-12.7C8.7-51.3,14.4-45.6,14.4-38.6"/>
	<path class="st0" d="M14.3-26c-7,0-12.7,5.7-12.7,12.7h12.7"/>
	<path class="st0" d="M1.7,24.6c-7,0-12.7-5.7-12.7-12.7H1.7V24.6z"/>
	<path class="st0" d="M1.7-0.7c-7,0-12.7-5.7-12.7-12.7H1.7V-0.7z"/>
	<path class="st0" d="M14.4,12H1.7V-0.7C8.7-0.7,14.4,5,14.4,12"/>
	<path class="st0" d="M14.3,24.6c-7,0-12.7,5.7-12.7,12.7h12.7"/>
	<path class="st0" d="M1.7,75.2c-7,0-12.7-5.7-12.7-12.7H1.7V75.2z"/>
	<path class="st0" d="M1.7,49.9c-7,0-12.7-5.7-12.7-12.7H1.7V49.9z"/>
	<path class="st0" d="M14.4,62.6H1.7V49.9C8.7,49.9,14.4,55.6,14.4,62.6"/>
	<path class="st0" d="M14.3,75.2c-7,0-12.7,5.7-12.7,12.7h12.7"/>
	<path class="st0" d="M1.7,125.9c-7,0-12.7-5.7-12.7-12.7H1.7V125.9z"/>
	<path class="st0" d="M1.7,100.5c-7,0-12.7-5.6-12.7-12.6H1.7V100.5z"/>
	<path class="st0" d="M14.4,113.2H1.7v-12.7C8.7,100.5,14.4,106.2,14.4,113.2"/>
	<path class="st0" d="M14.3,125.9c-7,0-12.7,5.7-12.7,12.7h12.7"/>
	<path class="st0" d="M1.7,176.5c-7,0-12.7-5.7-12.7-12.7H1.7V176.5z"/>
	<path class="st0" d="M1.7,151.2c-7,0-12.7-5.7-12.7-12.7H1.7V151.2z"/>
	<path class="st0" d="M14.4,163.9H1.7v-12.7C8.7,151.2,14.4,156.9,14.4,163.9"/>
	<path class="st0" d="M14.3,176.5c-7,0-12.7,5.7-12.7,12.7h12.7"/>
	<path class="st0" d="M1.7,227.1c-7,0-12.7-5.7-12.7-12.7H1.7V227.1z"/>
	<path class="st0" d="M1.7,201.8c-7,0-12.7-5.7-12.7-12.7H1.7V201.8z"/>
	<path class="st0" d="M14.4,214.5H1.7v-12.7C8.7,201.8,14.4,207.5,14.4,214.5"/>
	<path class="st0" d="M14.3,227.1c-7,0-12.7,5.7-12.7,12.7h12.7"/>
	<path class="st0" d="M1.7,277.7c-7,0-12.7-5.7-12.7-12.7H1.7V277.7z"/>
	<path class="st0" d="M1.7,252.4c-7,0-12.7-5.7-12.7-12.7H1.7V252.4z"/>
	<path class="st0" d="M14.4,265.1H1.7v-12.7C8.7,252.4,14.4,258.1,14.4,265.1"/>
	<path class="st0" d="M14.3,277.7c-7,0-12.7,5.7-12.7,12.7h12.7"/>
	<path class="st0" d="M1.7,328.3c-7,0-12.7-5.7-12.7-12.7H1.7V328.3z"/>
	<path class="st0" d="M1.7,303c-7,0-12.7-5.7-12.7-12.7H1.7V303z"/>
	<path class="st0" d="M14.4,315.7H1.7V303C8.7,303,14.4,308.7,14.4,315.7"/>
	<path class="st0" d="M14.3,986.4c-7,0-12.7,5.7-12.7,12.7h12.7"/>
	<path class="st0" d="M1.7,1037.1c-7,0-12.7-5.7-12.7-12.7H1.7V1037.1z"/>
	<path class="st0" d="M1.7,1011.7c-7,0-12.7-5.7-12.7-12.7H1.7V1011.7z"/>
	<path class="st0" d="M14.4,1024.4H1.7v-12.7C8.7,1011.7,14.4,1017.4,14.4,1024.4"/>
	<path class="st0" d="M14.3,379c-7,0-12.7,5.7-12.7,12.7h12.7"/>
	<path class="st0" d="M1.7,429.6c-7,0-12.7-5.6-12.7-12.6H1.7V429.6z"/>
	<path class="st0" d="M1.7,404.3c-7,0-12.7-5.7-12.7-12.6H1.7V404.3z"/>
	<path class="st0" d="M14.4,417H1.7v-12.7C8.7,404.3,14.4,410,14.4,417"/>
	<path class="st0" d="M14.3,429.6c-7,0-12.7,5.7-12.7,12.7h12.7"/>
	<path class="st0" d="M1.7,480.2c-7,0-12.7-5.7-12.7-12.7H1.7V480.2z"/>
	<path class="st0" d="M1.7,454.9c-7,0-12.7-5.6-12.7-12.6H1.7V454.9z"/>
	<path class="st0" d="M14.4,467.6H1.7v-12.7C8.7,454.9,14.4,460.6,14.4,467.6"/>
	<path class="st0" d="M14.3,480.2c-7,0-12.7,5.7-12.7,12.7h12.7"/>
	<path class="st0" d="M1.7,530.9c-7,0-12.7-5.7-12.7-12.7H1.7V530.9z"/>
	<path class="st0" d="M1.7,505.5c-7,0-12.7-5.7-12.7-12.7H1.7V505.5z"/>
	<path class="st0" d="M14.4,518.2H1.7v-12.7C8.7,505.5,14.4,511.2,14.4,518.2"/>
	<path class="st0" d="M14.3,530.9c-7,0-12.7,5.7-12.7,12.7h12.7"/>
	<path class="st0" d="M1.7,581.5c-7,0-12.7-5.7-12.7-12.7H1.7V581.5z"/>
	<path class="st0" d="M1.7,556.2c-7,0-12.7-5.7-12.7-12.7H1.7V556.2z"/>
	<path class="st0" d="M14.4,568.9H1.7v-12.7C8.7,556.2,14.4,561.9,14.4,568.9"/>
	<path class="st0" d="M14.3,581.5c-7,0-12.7,5.7-12.7,12.7h12.7"/>
	<path class="st0" d="M1.7,632.1c-7,0-12.7-5.7-12.7-12.7H1.7V632.1z"/>
	<path class="st0" d="M1.7,606.8c-7,0-12.7-5.7-12.7-12.7H1.7V606.8z"/>
	<path class="st0" d="M14.4,619.5H1.7v-12.7C8.7,606.8,14.4,612.5,14.4,619.5"/>
	<path class="st0" d="M14.3,632.1c-7,0-12.7,5.7-12.7,12.7h12.7"/>
	<path class="st0" d="M1.7,682.7c-7,0-12.7-5.7-12.7-12.7H1.7V682.7z"/>
	<path class="st0" d="M1.7,657.4c-7,0-12.7-5.7-12.7-12.7H1.7V657.4z"/>
	<path class="st0" d="M14.4,670.1H1.7v-12.7C8.7,657.4,14.4,663.1,14.4,670.1"/>
	<path class="st0" d="M14.3,682.7c-7,0-12.7,5.7-12.7,12.7h12.7"/>
	<path class="st0" d="M1.7,733.3c-7,0-12.7-5.7-12.7-12.7H1.7V733.3z"/>
	<path class="st0" d="M1.7,708c-7,0-12.7-5.7-12.7-12.7H1.7V708z"/>
	<path class="st0" d="M14.4,720.7H1.7V708C8.7,708,14.4,713.7,14.4,720.7"/>
	<path class="st0" d="M14.3,733.3c-7,0-12.7,5.7-12.7,12.7h12.7"/>
	<path class="st0" d="M1.7,784c-7,0-12.7-5.7-12.7-12.7H1.7V784z"/>
	<path class="st0" d="M1.7,758.6c-7,0-12.7-5.6-12.7-12.6H1.7V758.6z"/>
	<path class="st0" d="M14.4,771.3H1.7v-12.7C8.7,758.6,14.4,764.3,14.4,771.3"/>
	<path class="st0" d="M14.3,784c-7,0-12.7,5.7-12.7,12.7h12.7"/>
	<path class="st0" d="M1.7,834.6c-7,0-12.7-5.7-12.7-12.7H1.7V834.6z"/>
	<path class="st0" d="M1.7,809.3c-7,0-12.7-5.7-12.7-12.7H1.7V809.3z"/>
	<path class="st0" d="M14.4,822H1.7v-12.7C8.7,809.3,14.4,815,14.4,822"/>
	<path class="st0" d="M14.3,834.6c-7,0-12.7,5.7-12.7,12.7h12.7"/>
	<path class="st0" d="M1.7,885.2c-7,0-12.7-5.7-12.7-12.7H1.7V885.2z"/>
	<path class="st0" d="M1.7,859.9c-7,0-12.7-5.7-12.7-12.7H1.7V859.9z"/>
	<path class="st0" d="M14.4,872.6H1.7v-12.7C8.7,859.9,14.4,865.6,14.4,872.6"/>
	<path class="st0" d="M14.3,885.2c-7,0-12.7,5.7-12.7,12.7h12.7"/>
	<path class="st0" d="M1.7,935.8c-7,0-12.7-5.7-12.7-12.7H1.7V935.8z"/>
	<path class="st0" d="M1.7,910.5c-7,0-12.7-5.7-12.7-12.7H1.7V910.5z"/>
	<path class="st0" d="M14.4,923.2H1.7v-12.7C8.7,910.5,14.4,916.2,14.4,923.2"/>
	<path class="st0" d="M14.3,935.8c-7,0-12.7,5.7-12.7,12.7h12.7"/>
	<path class="st0" d="M1.7,986.4c-7,0-12.7-5.7-12.7-12.7H1.7V986.4z"/>
	<path class="st0" d="M1.7,961.1c-7,0-12.7-5.7-12.7-12.7H1.7V961.1z"/>
	<path class="st0" d="M14.4,973.8H1.7v-12.7C8.7,961.1,14.4,966.8,14.4,973.8"/>
</g>
</svg>
