<?xml version="1.0" encoding="utf-8"?>
<!-- Generator: Adobe Illustrator 19.1.0, SVG Export Plug-In . SVG Version: 6.00 Build 0)  -->
<svg version="1.1" id="Layer_1" xmlns="http://www.w3.org/2000/svg" xmlns:xlink="http://www.w3.org/1999/xlink" x="0px" y="0px"
	 viewBox="0 0 307.7 307.5" style="enable-background:new 0 0 307.7 307.5;" xml:space="preserve">
<style type="text/css">
	.st0{clip-path:url(#SVGID_2_);fill:#FFFFFF;}
</style>
<g>
	<defs>
		<rect id="SVGID_1_" width="307.7" height="307.5"/>
	</defs>
	<clipPath id="SVGID_2_">
		<use xlink:href="#SVGID_1_"  style="overflow:visible;"/>
	</clipPath>
	<path class="st0" d="M230.8,0c42.5,0,76.9,34.4,76.9,76.9h-76.9V0z"/>
	<path class="st0" d="M230.8,153.7c42.5,0,76.9,34.4,76.9,76.9h-76.9V153.7z"/>
	<path class="st0" d="M230.8,153.7c-42.5,0-76.9-34.4-76.9-76.9h76.9V153.7z"/>
	<path class="st0" d="M153.8,0c-42.5,0-76.9,34.4-76.9,76.9h76.9V0z"/>
	<path class="st0" d="M76.9,307.5C34.4,307.5,0,273.1,0,230.6h76.9V307.5z"/>
	<path class="st0" d="M76.9,153.7C34.4,153.7,0,119.4,0,76.9h76.9V153.7z"/>
	<path class="st0" d="M76.9,153.7c42.5,0,76.9,34.4,76.9,76.9H76.9V153.7z"/>
	<path class="st0" d="M153.8,307.5c42.5,0,76.9-34.4,76.9-76.9h-76.9V307.5z"/>
</g>
</svg>
