<?xml version="1.0" encoding="utf-8"?>
<!-- Generator: Adobe Illustrator 19.1.0, SVG Export Plug-In . SVG Version: 6.00 Build 0)  -->
<svg version="1.1" id="Layer_1" xmlns="http://www.w3.org/2000/svg" xmlns:xlink="http://www.w3.org/1999/xlink" x="0px" y="0px"
	 viewBox="0 0 507.8 77.3" style="enable-background:new 0 0 507.8 77.3;" xml:space="preserve">
<style type="text/css">
	.st0{clip-path:url(#SVGID_2_);fill:#FFFFFF;}
</style>
<g>
	<defs>
		<rect id="SVGID_1_" y="0" width="507.8" height="77.3"/>
	</defs>
	<clipPath id="SVGID_2_">
		<use xlink:href="#SVGID_1_"  style="overflow:visible;"/>
	</clipPath>
	<path class="st0" d="M19.3,77.3C8.7,77.3,0,68.7,0,58h19.3V77.3z M38.7,77.3C49.4,77.3,58,68.7,58,58H38.7V77.3z M58,19.3h19.3
		C77.4,8.7,68.7,0,58,0V19.3z M58,58h19.3c0-10.7-8.7-19.3-19.3-19.3V58z M58,19.3H38.7c0,10.7,8.7,19.3,19.3,19.3V19.3z M38.7,0
		C28,0,19.3,8.7,19.3,19.3h19.3V0z M19.3,19.3H0C0,30,8.7,38.7,19.3,38.7V19.3z M19.3,58h19.3c0-10.7-8.7-19.3-19.3-19.3V58z
		 M113.7,29.7c0-1.3,0.5-2.3,1.6-3.2c1.1-0.9,2.6-1.3,4.4-1.3c3.3,0,6.7,1.3,10.1,3.8l3.5-4.9c-3.9-3.1-8.4-4.7-13.5-4.7
		c-3.7,0-6.8,1-9.1,3c-2.4,2-3.6,4.6-3.6,7.8c0,3.3,1.1,5.8,3.2,7.5c1.8,1.4,4.8,2.6,9.1,3.7c3.3,0.8,5.6,1.6,6.8,2.4
		c1.1,0.8,1.6,1.9,1.6,3.3c0,1.5-0.6,2.6-1.8,3.5c-1.2,0.9-2.8,1.3-4.8,1.3c-4.1,0-8-1.6-11.7-4.8l-3.9,4.7c4.4,4,9.6,5.9,15.5,5.9
		c4,0,7.2-1,9.6-3c2.4-2,3.7-4.7,3.7-8.1c0-3-1-5.4-3-7.1c-1.8-1.6-4.8-2.9-8.9-3.9c-3.5-0.8-5.8-1.7-7-2.5
		C114.3,32.4,113.7,31.2,113.7,29.7 M182.6,38.5c0-5.3-1.8-9.9-5.5-13.6c-3.6-3.7-8.3-5.6-13.9-5.6c-5.6,0-10.3,1.9-14,5.6
		c-3.7,3.8-5.5,8.3-5.5,13.6c0,5.3,1.8,9.9,5.5,13.6c3.6,3.7,8.3,5.6,13.9,5.6c5.6,0,10.3-1.9,14-5.6
		C180.8,48.4,182.6,43.9,182.6,38.5 M175.8,38.6c0,3.7-1.2,6.8-3.5,9.3c-2.4,2.5-5.4,3.8-9,3.8c-3.6,0-6.7-1.3-9.1-3.9
		c-2.4-2.6-3.6-5.7-3.6-9.4c0-3.7,1.2-6.8,3.5-9.3c2.4-2.5,5.4-3.8,9-3.8c3.6,0,6.7,1.3,9.1,3.9C174.6,31.8,175.8,35,175.8,38.6
		 M214.3,43.1c5.9-1.6,8.9-5.4,8.9-11.3c0-3.6-1.2-6.5-3.7-8.6c-2.5-2.1-5.8-3.2-10.1-3.2h-16.6v37.2h6.5v-13h8.2l9.1,13h7.7
		L214.3,43.1z M216.6,32.2c0,1.9-0.7,3.4-2.1,4.6c-1.4,1.1-3.2,1.7-5.6,1.7h-9.6V26h9.5C214,26,216.6,28,216.6,32.2 M234.5,20v37.2
		h27.8v-5.8h-21.3v-10h18.6v-5.8h-18.6v-9.7h21V20H234.5z M279.5,20h-6.1v37.2h6.4V30.7l20.5,26.4h5.5V20h-6.4v25.7L279.5,20z
		 M342.4,19.9h-7.1l13,37.6h5.6l9.1-26.8l9.1,26.8h5.6l13-37.6H384l-8.9,27.7L366,19.9h-5.5l-9.1,27.7L342.4,19.9z M400.1,20v37.2
		H428v-5.8h-21.3v-10h18.6v-5.8h-18.6v-9.7h21V20H400.1z M446.6,29.7c0-1.3,0.5-2.3,1.6-3.2c1.1-0.9,2.6-1.3,4.4-1.3
		c3.3,0,6.7,1.3,10.1,3.8l3.5-4.9c-3.9-3.1-8.4-4.7-13.5-4.7c-3.7,0-6.8,1-9.1,3c-2.4,2-3.6,4.6-3.6,7.8c0,3.3,1.1,5.8,3.2,7.5
		c1.8,1.4,4.8,2.6,9.1,3.7c3.3,0.8,5.6,1.6,6.8,2.4c1.1,0.8,1.6,1.9,1.6,3.3c0,1.5-0.6,2.6-1.8,3.5c-1.2,0.9-2.8,1.3-4.8,1.3
		c-4.1,0-8-1.6-11.7-4.8l-3.9,4.7c4.4,4,9.6,5.9,15.5,5.9c4,0,7.2-1,9.6-3c2.4-2,3.7-4.7,3.7-8.1c0-3-1-5.4-3-7.1
		c-1.8-1.6-4.8-2.9-8.9-3.9c-3.5-0.8-5.8-1.7-7-2.5C447.2,32.4,446.6,31.2,446.6,29.7 M507.8,26.1V20h-30.2v6.1h11.8v31.1h6.6V26.1
		H507.8z"/>
</g>
</svg>
