<?xml version="1.0" encoding="utf-8"?>
<!-- Generator: Adobe Illustrator 19.1.0, SVG Export Plug-In . SVG Version: 6.00 Build 0)  -->
<svg version="1.1" id="Layer_1" xmlns="http://www.w3.org/2000/svg" xmlns:xlink="http://www.w3.org/1999/xlink" x="0px" y="0px"
	 viewBox="873 -432.3 1796 964.3" style="enable-background:new 873 -432.3 1796 964.3;" xml:space="preserve">
<style type="text/css">
	.st0{fill:none;stroke:#FFFFFF;stroke-width:0.5;stroke-miterlimit:10;}
</style>
<path class="st0" d="M2497.4,36.6h-182.5v-182.3h0.2c100.3,0,182,81.7,182,182v0.2h0.3V36.6z M2315.8,35.8h180.7
	c-0.1-99.5-81.2-180.3-180.7-180.5V35.8L2315.8,35.8z M2134.3,36.6h-182.5v-0.2c0-100.3,81.7-182,182-182h0.2V36.8h0.2v-0.2H2134.3z
	 M1952.7,35.8h180.7v-180.7C2034-144.6,1953.1-63.7,1952.7,35.8z M3223.7,36.6h-182.5v-182.3h0.2c100.3,0,182,81.7,182,182v0.2h0.3
	V36.6z M3042,35.8h180.7c-0.1-99.5-81.2-180.3-180.7-180.5V35.8z M2860.5,36.6H2678v-0.2c0-100.3,81.7-182,182-182h0.2V36.8h0.2
	v-0.2H2860.5z M2678.9,35.8h180.7v-180.7C2760.1-144.6,2679.3-63.7,2678.9,35.8z M1045,36.6H862.5v-182.3h0.2
	c100.3,0,182,81.7,182,182v0.2h0.3V36.6z M863.3,35.8h180.7c-0.1-99.5-81.2-180.3-180.7-180.5L863.3,35.8L863.3,35.8z M682,36.6
	H499.4v-0.2c0-100.3,81.7-182,182-182h0.2V36.8h0.4L682,36.6L682,36.6z M500.3,35.8H681v-180.7C581.5-144.6,500.5-63.7,500.3,35.8z
	 M1771.2,36.6h-182.5v-182.3h0.2c100.3,0,182,81.7,182,182v0.2h0.3V36.6z M1589.6,35.8h180.7c-0.1-99.5-81.2-180.3-180.7-180.5V35.8
	z M1408.2,36.6h-182.5v-0.2c0-100.3,81.7-182,182-182h0.2V36.8h0.2v-0.2H1408.2z M1226.6,35.8h180.7v-180.7
	C1307.8-144.6,1226.7-63.7,1226.6,35.8z M2315.8,218.1h-0.2c-100.3,0-182-81.7-182-182v-0.2h182.3v182.4h-0.1V218.1z M2134.3,36.7
	c0.1,99.5,81.2,180.3,180.7,180.5V36.7H2134.3z M1952.7,218.1h-0.2c-100.3,0-182-81.7-182-182v-0.2h182.5v182.4h-0.2v-0.2H1952.7z
	 M1771.2,36.7c0.1,99.5,81.2,180.3,180.7,180.5V36.7H1771.2z M3042,218.1h-0.2c-100.3,0-182-81.7-182-182v-0.2h182.5v182.4h-0.2
	v-0.2H3042z M2860.5,36.7c0.1,99.5,81.2,180.3,180.7,180.5V36.7H2860.5z M2678.9,218.1h-0.2c-100.3,0-182-81.7-182-182v-0.2h182.5
	v182.4h-0.2v-0.2H2678.9z M2497.4,36.7c0.1,99.5,81.2,180.3,180.7,180.5V36.7H2497.4z M863.3,218.1h-0.2c-100.3,0-182-81.7-182-182
	v-0.2h182.5v182.4h-0.2v-0.2H863.3z M682,36.7c0.1,99.5,81.2,180.3,180.7,180.5V36.7H682z M500.3,218.1h-0.2
	c-100.3,0-182-81.7-182-182v-0.2h182.5v182.4h-0.2v-0.2H500.3z M318.7,36.7c0.1,99.5,81.2,180.3,180.7,180.5V36.7H318.7z
	 M1589.6,218.1h-0.2c-100.3,0-182-81.7-182-182v-0.2h182.5v182.4h-0.2v-0.2H1589.6z M1408.2,36.7c0.1,99.5,81.2,180.3,180.7,180.5
	V36.7H1408.2z M1226.6,218.1h-0.2c-100.3,0-182-81.7-182-182v-0.2H1227v182.4h-0.2v-0.2H1226.6z M1045,36.7
	c0.1,99.5,81.2,180.3,180.7,180.5V36.7H1045z M2497.4,399.6h-182.5V217.3h0.2c100.3,0,182,81.7,182,182v0.2h0.3V399.6z
	 M2315.8,398.8h180.7c-0.1-99.5-81.2-180.3-180.7-180.5V398.8L2315.8,398.8z M1952.7,581h-0.2c-100.3,0-182-81.7-182-182v-0.2h182.5
	v182.3h-0.2V581H1952.7z M1771.2,399.6c0.1,99.5,81.2,180.3,180.7,180.5V399.6H1771.2z M2134.3,399.6h-182.5V217.3h0.2
	c100.3,0,182,81.7,182,182v0.2h0.3V399.6z M1952.7,398.8h180.7c-0.1-99.5-81.2-180.3-180.7-180.5V398.8L1952.7,398.8z M2133.8,581
	h-0.2V398.8h182.3v0.2C2315.8,499.6,2234.1,581,2133.8,581z M2134.3,399.6v180.7c99.6-0.1,180.3-81.2,180.7-180.5L2134.3,399.6
	L2134.3,399.6z M3223.7,399.6h-182.5V217.3h0.2c100.3,0,182,81.7,182,182v0.2h0.3V399.6z M3042,398.8h180.7
	c-0.1-99.5-81.2-180.3-180.7-180.5V398.8z M2678.9,581h-0.2c-100.3,0-182-81.7-182-182v-0.2h182.5v182.3h-0.2V581H2678.9z
	 M2497.4,399.6c0.1,99.5,81.2,180.3,180.7,180.5V399.6H2497.4z M2860.5,399.6H2678V217.3h0.2c100.3,0,182,81.7,182,182v0.2h0.3
	V399.6z M2678.9,398.8h180.7c-0.1-99.5-81.2-180.3-180.7-180.5V398.8z M2860.1,581h-0.2V398.8h182.5v0.2
	C3042,499.6,2960.5,581,2860.1,581z M2860.5,399.6v180.7c99.6-0.1,180.3-81.2,180.7-180.5L2860.5,399.6L2860.5,399.6z M1045,399.6
	H862.5V217.3h0.2c100.3,0,182,81.7,182,182v0.2h0.3V399.6z M863.3,398.8h180.7c-0.1-99.5-81.1-180.3-180.7-180.7L863.3,398.8
	L863.3,398.8z M500.3,581h-0.2c-100.3,0-182-81.7-182-182v-0.2h182.5v182.3h-0.2V581H500.3z M318.7,399.6
	c0.1,99.5,81.2,180.3,180.7,180.5V399.6H318.7z M682,399.6H499.4V217.3h0.2c100.3,0,182,81.7,182,182v0.2h0.4V399.6z M500.3,398.8
	H681c-0.1-99.5-81.2-180.3-180.7-180.5V398.8L500.3,398.8z M681.5,581h-0.2V398.8h182.5v0.2C863.3,499.6,781.8,581,681.5,581z
	 M682,399.6v180.7c99.6-0.1,180.3-81.2,180.7-180.5L682,399.6L682,399.6z M1771.2,399.6h-182.5V217.3h0.2c100.3,0,182,81.7,182,182
	v0.2h0.3V399.6z M1589.6,398.8h180.7c-0.1-99.5-81.2-180.3-180.7-180.5V398.8z M1226.6,581h-0.2c-100.3,0-182-81.7-182-182v-0.2
	H1227v182.3h-0.2V581H1226.6z M1045,399.6c0.1,99.5,81.2,180.3,180.7,180.5V399.6H1045z M1408.2,399.6h-182.5V217.3h0.2
	c100.3,0,182,81.7,182,182v0.2h0.3V399.6z M1226.6,398.8h180.7c-0.1-99.5-81.2-180.3-180.7-180.5V398.8z M1407.6,581h-0.2V398.8
	h182.5v0.2C1589.6,499.6,1507.9,581,1407.6,581z M1408.2,399.6v180.7c99.6-0.1,180.3-81.2,180.7-180.5L1408.2,399.6L1408.2,399.6z
	 M2497.4-689.2h-182.5v-182.4h0.2c100.3,0,182,81.7,182,182v0.2h0.2v0.2H2497.4z M2315.8-690.2h180.7
	c-0.1-99.5-81.2-180.3-180.7-180.5V-690.2L2315.8-690.2z M2134.3-689.2h-182.5v-0.2c0-100.3,81.7-182,182-182h0.2V-689h0.2v-0.2
	H2134.3z M1952.7-690.2h180.7v-180.4C2034-870.3,1953.1-789.5,1952.7-690.2z M3223.7-689.2h-182.5v-182.4h0.2
	c100.3,0,182,81.7,182,182v0.2h0.2v0.2H3223.7z M3042-690.2h180.7c-0.1-99.5-81.2-180.3-180.7-180.5V-690.2z M2860.5-689.2H2678
	v-0.2c0-100.3,81.7-182,182-182h0.2V-689h0.2v-0.2H2860.5z M2678.9-690.2h180.7v-180.4C2760.1-870.3,2679.3-789.5,2678.9-690.2z
	 M1045-689.2H862.5v-182.4h0.2c100.3,0,182,81.7,182,182v0.2h0.2v0.2H1045z M863.3-690.2h180.7c-0.1-99.5-81.1-180.3-180.7-180.5
	L863.3-690.2L863.3-690.2z M682-689.2H499.4v-0.2c0-100.3,81.7-182,182-182h0.2V-689h0.4L682-689.2L682-689.2z M500.3-690.2H681
	v-180.4C581.5-870.3,500.5-789.5,500.3-690.2z M1771.2-689.2h-182.5v-182.4h0.2c100.3,0,182,81.7,182,182v0.2h0.2v0.2H1771.2z
	 M1589.6-690.2h180.7c-0.1-99.5-81.2-180.3-180.7-180.5V-690.2z M1408.2-689.2h-182.5v-0.2c0-100.3,81.7-182,182-182h0.2V-689h0.2
	v-0.2H1408.2z M1226.6-690.2h180.7v-180.4C1307.8-870.3,1226.7-789.5,1226.6-690.2z M2315.8-507.7h-0.2c-100.3,0-182-81.7-182-182
	v-0.2h182.3v182.4h-0.1V-507.7z M2134.3-689.2c0.1,99.5,81.2,180.3,180.7,180.5v-180.5H2134.3z M1952.7-507.7h-0.2
	c-100.3,0-182-81.7-182-182v-0.2h182.5v182.4h-0.2v-0.2H1952.7z M1771.2-689.2c0.1,99.5,81.2,180.3,180.7,180.5v-180.5H1771.2z
	 M3042-507.7h-0.2c-100.3,0-182-81.7-182-182v-0.2h182.5v182.4h-0.2v-0.2H3042z M2860.5-689.2c0.1,99.5,81.2,180.3,180.7,180.5
	v-180.5H2860.5z M2678.9-507.7h-0.2c-100.3,0-182-81.7-182-182v-0.2h182.5v182.4h-0.2v-0.2H2678.9z M2497.4-689.2
	c0.1,99.5,81.2,180.3,180.7,180.5v-180.5H2497.4z M863.3-507.7h-0.2c-100.3,0-182-81.7-182-182v-0.2h182.5v182.4h-0.2v-0.2H863.3z
	 M682-689.2c0.2,99.3,81.3,180.3,180.9,180.5v-180.5H682z M500.3-507.7h-0.2c-100.4,0-182.1-81.7-182.1-182v-0.2h182.5v182.4h-0.2
	V-507.7z M318.7-689.2c0.1,99.5,81.2,180.3,180.7,180.5v-180.5H318.7z M1589.6-507.7h-0.2c-100.3,0-182-81.7-182-182v-0.2h182.5
	v182.4h-0.2v-0.2H1589.6z M1408.2-689.2c0.1,99.5,81.2,180.3,180.7,180.5v-180.5H1408.2z M1226.6-507.7h-0.2
	c-100.3,0-182-81.7-182-182v-0.2H1227v182.4h-0.2v-0.2H1226.6z M1045-689.2c0.1,99.5,81.2,180.3,180.7,180.5v-180.5H1045z
	 M2497.4-326.4h-182.5v-182.3h0.2c100.3,0,182,81.7,182,182v0.2h0.3V-326.4z M2315.8-327.1h180.7c-0.1-99.5-81.2-180.3-180.7-180.5
	V-327.1L2315.8-327.1z M2134.3-326.4h-182.5v-182.3h0.2c100.3,0,182,81.7,182,182v0.2h0.3V-326.4z M1952.7-327.1h180.7
	c-0.1-99.5-81.2-180.3-180.7-180.5V-327.1L1952.7-327.1z M3223.7-326.4h-182.5v-182.3h0.2c100.3,0,182,81.7,182,182v0.2h0.3V-326.4z
	 M3042-327.1h180.7c-0.1-99.5-81.2-180.3-180.7-180.5V-327.1z M2860.5-326.4H2678v-182.3h0.2c100.3,0,182,81.7,182,182v0.2h0.3
	V-326.4z M2678.9-327.1h180.7c-0.1-99.5-81.2-180.3-180.7-180.5V-327.1z M1045-326.4H862.5v-182.3h0.2c100.3,0,182,81.7,182,182v0.2
	h0.3V-326.4z M863.3-327.1h180.7c-0.1-99.5-81.1-180.3-180.7-180.5L863.3-327.1L863.3-327.1z M682-326.4H499.4v-182.3h0.2
	c100.3,0,182,81.7,182,182v0.2h0.4V-326.4z M500.3-327.1H681c-0.2-99.5-81.3-180.3-180.7-180.5V-327.1L500.3-327.1z M1771.2-326.4
	h-182.5v-182.3h0.2c100.3,0,182,81.7,182,182v0.2h0.3V-326.4z M1589.6-327.1h180.7c-0.1-99.5-81.2-180.3-180.7-180.5V-327.1z
	 M1408.2-326.4h-182.5v-182.3h0.2c100.3,0,182,81.7,182,182v0.2h0.3V-326.4z M1226.6-327.1h180.7c-0.1-99.5-81.2-180.3-180.7-180.5
	V-327.1z M1952.7-144.8h-0.2c-100.3,0-182-81.7-182-182v-0.2h182.5v182.3h-0.2v-0.1H1952.7z M1771.2-326.4
	c0.1,99.5,81.2,180.3,180.7,180.5v-180.5H1771.2z M2133.8-144.8h-0.2v-182.3h182.3v0.2C2315.8-226.4,2234.1-144.8,2133.8-144.8z
	 M2134.3-326.4v180.5c99.6-0.1,180.3-81.2,180.7-180.5C2315-326.4,2134.3-326.4,2134.3-326.4z M2678.9-144.8h-0.2
	c-100.3,0-182-81.7-182-182v-0.2h182.5v182.3h-0.2v-0.1H2678.9z M2497.4-326.4c0.1,99.5,81.2,180.3,180.7,180.5v-180.5H2497.4z
	 M2860.1-144.8h-0.2v-182.3h182.5v0.2C3042-226.4,2960.5-144.8,2860.1-144.8z M2860.5-326.4v180.5c99.6-0.1,180.3-81.2,180.7-180.5
	C3041.2-326.4,2860.5-326.4,2860.5-326.4z M500.3-144.8h-0.2c-100.3,0-182-81.7-182-182v-0.2h182.5v182.3h-0.2v-0.1H500.3z
	 M318.7-326.4c0.1,99.5,81.2,180.3,180.7,180.5v-180.5H318.7z M681.5-144.8h-0.2v-182.3h182.5v0.2
	C863.3-226.4,781.8-144.8,681.5-144.8z M682-326.4v180.5c99.6-0.1,180.3-81.2,180.7-180.5C862.8-326.4,682-326.4,682-326.4z
	 M1226.6-144.8h-0.2c-100.3,0-182-81.7-182-182v-0.2H1227v182.3h-0.2v-0.1H1226.6z M1045-326.4c0.1,99.5,81.2,180.3,180.7,180.5
	v-180.5H1045z M1407.6-144.8h-0.2v-182.3h182.5v0.2C1589.6-226.4,1507.9-144.8,1407.6-144.8z M1408.2-326.4v180.5
	c99.6-0.1,180.3-81.2,180.7-180.5C1588.9-326.4,1408.2-326.4,1408.2-326.4z"/>
</svg>
