<?xml version="1.0" encoding="utf-8"?>
<!-- Generator: Adobe Illustrator 19.1.0, SVG Export Plug-In . SVG Version: 6.00 Build 0)  -->
<svg version="1.1" id="Layer_1" xmlns="http://www.w3.org/2000/svg" xmlns:xlink="http://www.w3.org/1999/xlink" x="0px" y="0px"
	 viewBox="0 0 1021.5 718.4" style="enable-background:new 0 0 1021.5 718.4;" xml:space="preserve">
<style type="text/css">
	.st0{clip-path:url(#SVGID_2_);fill:#363636;}
</style>
<g>
	<defs>
		<rect id="SVGID_1_" width="1021.4" height="718.4"/>
	</defs>
	<clipPath id="SVGID_2_">
		<use xlink:href="#SVGID_1_"  style="overflow:visible;"/>
	</clipPath>
	<path class="st0" d="M1011.2,155c0,0-10-70.4-40.6-101.4c-38.8-40.7-82.4-40.9-102.3-43.3C725.4,0,510.9,0,510.9,0h-0.4
		c0,0-214.4,0-357.3,10.3c-20,2.4-63.5,2.6-102.3,43.3C20.2,84.6,10.2,155,10.2,155S0,237.6,0,320.3v77.5
		c0,82.7,10.2,165.3,10.2,165.3s10,70.4,40.6,101.4c38.9,40.7,89.9,39.4,112.6,43.7c81.7,7.8,347.3,10.3,347.3,10.3
		s214.6-0.3,357.6-10.7c20-2.4,63.5-2.6,102.3-43.3c30.6-31,40.6-101.4,40.6-101.4s10.2-82.7,10.2-165.3v-77.5
		C1021.4,237.6,1011.2,155,1011.2,155 M405.3,491.7l0-287l276,144L405.3,491.7z"/>
</g>
</svg>
