<?xml version="1.0" encoding="utf-8"?>
<!-- Generator: Adobe Illustrator 19.1.0, SVG Export Plug-In . SVG Version: 6.00 Build 0)  -->
<svg version="1.1" id="Layer_1" xmlns="http://www.w3.org/2000/svg" xmlns:xlink="http://www.w3.org/1999/xlink" x="0px" y="0px"
	 viewBox="0 0 500 500" style="enable-background:new 0 0 500 500;" xml:space="preserve">
<style type="text/css">
	.st0{fill:#363636;}
	.st1{fill:#F1F1F1;}
</style>
<g>
	<path class="st0" d="M264.5,79.3c-5.5-6.3-10-13.2-13.6-20.4c-3.6,7.2-8.1,14.1-13.6,20.4c-33.6,38.4-90.3,43.4-129.3,12.5v255.4
		c0.5,29.7,23.4,39.8,44.6,47.6l16.5,4.6c24.8,3.2,48.9,9.3,81.7,43.4c0-0.1,0.1-0.1,0.1-0.2c0,0.1,0.1,0.1,0.1,0.2
		c32.8-34.1,56.9-40.2,81.7-43.4l16.5-4.6c21.1-7.8,44-17.9,44.6-47.6V91.9C354.7,122.8,298,117.7,264.5,79.3"/>
	<path class="st1" d="M285.9,108.6c0,0-44-6.4-65,27.6c-20.8,33.6-6.1,64.1-6.1,64.1s44.2,7.4,67.6-28.7
		C301.8,141.5,285.9,108.6,285.9,108.6"/>
	<path class="st0" d="M238.7,134.3l19.7,10.1c0.8-0.8,1.5-1.6,2.3-2.4l-19.7-10.1C240.1,132.7,239.4,133.5,238.7,134.3"/>
	<path class="st0" d="M232,142.8l19.2,9.8c0.7-0.9,1.5-1.8,2.3-2.8l-19.4-9.9C233.4,140.8,232.7,141.8,232,142.8"/>
	<path class="st0" d="M226.9,151.5l18.5,9.5c0.5-0.9,1.1-1.8,1.6-2.7l-18.7-9.5C227.8,149.7,227.3,150.6,226.9,151.5"/>
	<path class="st0" d="M258.2,117.6c-1,0.6-1.9,1.3-2.9,2l19,9.7c0.9-0.8,1.8-1.5,2.6-2.2L258.2,117.6z"/>
	<path class="st0" d="M246.3,126.8l19.6,10.1c0.9-0.8,1.8-1.7,2.7-2.5l-19.5-10C248.2,125.1,247.2,126,246.3,126.8"/>
	<path class="st0" d="M268.1,124.3c11.2-9.8,20.4-16.1,20.4-16.1l-1.7-1.1c0,0-10.1,3.6-23.6,14.8L268.1,124.3z"/>
	<path class="st0" d="M235.3,153.8c-13.7,21.8-22.1,46.9-22.1,46.9l2,1.2c0,0,10.5-25.7,24.1-46.1L235.3,153.8z"/>
	<polygon class="st1" points="362.4,123.5 367.2,137 382.2,137 370.2,146.5 374.8,161.1 362.4,151.7 350,160.6 354.8,146.4 
		343.2,137 357.7,137 	"/>
	<polygon class="st1" points="362.4,167.7 367.2,181.2 382.2,181.2 370.2,190.8 374.8,205.4 362.4,195.9 350,204.8 354.8,190.7 
		343.2,181.2 357.7,181.2 	"/>
	<polygon class="st1" points="314.9,167.7 319.6,181.2 334.7,181.2 322.7,190.8 327.3,205.4 314.9,195.9 302.6,204.8 307.3,190.7 
		295.7,181.2 310.2,181.2 	"/>
	<polygon class="st1" points="314.5,123.5 319.3,137 334.3,137 322.3,146.5 326.9,161.1 314.5,151.7 302.2,160.6 306.9,146.4 
		295.3,137 309.8,137 	"/>
	<polygon class="st1" points="186.6,123.5 191.3,137 206.4,137 194.4,146.5 198.9,161.1 186.6,151.7 174.2,160.6 179,146.4 
		167.4,137 181.8,137 	"/>
	<polygon class="st1" points="186.6,167.7 191.3,181.2 206.4,181.2 194.4,190.8 198.9,205.4 186.6,195.9 174.2,204.8 179,190.7 
		167.4,181.2 181.8,181.2 	"/>
	<polygon class="st1" points="139.1,167.7 143.8,181.2 158.8,181.2 146.9,190.8 151.4,205.4 139.1,195.9 126.7,204.8 131.5,190.7 
		119.9,181.2 134.3,181.2 	"/>
	<polygon class="st1" points="138.7,123.5 143.5,137 158.5,137 146.5,146.5 151.1,161.1 138.7,151.7 126.4,160.6 131.1,146.4 
		119.5,137 134,137 	"/>
	<path class="st1" d="M122.1,215.2v122.7c0.5,27.3,21.1,36.5,40.1,43.7l14.9,4.3c22.4,2.9,44.1,8.5,73.6,39.8c0-0.1,0.1-0.1,0.1-0.2
		c0,0.1,0.1,0.1,0.1,0.2c29.5-31.3,51.2-36.9,73.6-39.8l14.9-4.3c19-7.2,39.7-16.4,40.1-43.7V215.2H122.1z"/>
	<path class="st0" d="M258.5,231.5h-22.8h-8.1v19.4h8.1v35.8v19.4v29.4v9.8v17.1v0.9c-5-0.6-9.3-0.9-9.3-0.9V380
		c0,0,10.8,1.2,18.4,3.5c6.2,1.9,21.3,8.9,21.3,8.9V373c0,0-2.9-1.9-7.7-3.9v-6.6v-26.9v-29.4h11.9l2.9,8H286v-8v-9.7v-0.6v-9.1
		v-8.6h-12.8l-3.1,8.6h-11.7v-35.8h15l4.9,11.4h15.4v-11.4V244v-12.5H258.5z"/>
	<path class="st0" d="M212.9,231.5h-22.8h-6.6v19.4h6.6v47.5l-23.8-68v-0.1h-22.8h-6.5v19.4h6.5v53.7v31.8c-5.2-0.3-9.8-0.3-9.8-0.3
		l1.6,19.8c0,0,10.9,0.4,18.7,2.4c6.3,1.6,22.1,8.3,22.1,8.3l-1.8-21.9c0,0-3.1-1.9-8-3.8v-36.4v-4.1l24.6,70.4l21.9,6.8v-0.1v-12.9
		V250.9h6.3v-19.4H212.9z"/>
	<path class="st0" d="M348.5,311.9v27.6c-6,1.3-12.5,2.9-18,4.4v-1.8v-21.7v-69.6l6.6-3v-16.4h-6.6h-11.1h-0.6h-11.1h-6.6v16.4
		l6.6,3v69.6v21.7v10.9c-3.9,2-7.2,4-9.8,5.6v22.2c7.2-4.2,25.1-14.3,33.8-17.8c16.7-6.7,34.7-8.3,34.7-8.3v-1.7v-17.3v-23.9H348.5z
		"/>
</g>
</svg>
