<?xml version="1.0" encoding="utf-8"?>
<!-- Generator: Adobe Illustrator 19.1.0, SVG Export Plug-In . SVG Version: 6.00 Build 0)  -->
<svg version="1.1" id="Layer_1" xmlns="http://www.w3.org/2000/svg" xmlns:xlink="http://www.w3.org/1999/xlink" x="0px" y="0px"
	 viewBox="0 0 500 500" style="enable-background:new 0 0 500 500;" xml:space="preserve">
<style type="text/css">
	.st0{fill-rule:evenodd;clip-rule:evenodd;fill:#363636;}
</style>
<g>
	<path class="st0" d="M93.6,181.1c-27.4,32.1-53.6,72-53.9,101.7c-0.1,11.2,3.5,21,12.1,28.4c12.3,10.7,26,14.4,39.5,14.4
		c19.8,0,39.4-8,54.8-14.1c25.9-10.4,312.3-134.7,312.3-134.7c2.8-1.4,2.2-3.1-1.2-2.2c-1.4,0.3-311.8,84.5-311.8,84.5
		c-6,1.7-12.1,2.6-18.1,2.6c-23.9,0.1-45.1-13.1-44.9-41C82.6,209.7,85.9,196.5,93.6,181.1"/>
</g>
</svg>
